# xmcd
#
# Track frame offsets: 
#        187
#        23982
#        49304
#        75247
#        103917
#        127799
#        147554
#        172379
#        197792
#        220864
#
# Disc length: 3300 seconds
#
# Revision: 5
# Processed by: cddbd v1.5.2PL0 Copyright (c) Steve Scherf et al.
# Submitted via: ExactAudioCopyFreeDBPlugin 1.0
#
DISCID=920ce20a
DTITLE=徳永英明 - Nostalgia
DYEAR=1993
DGENRE=JPop
TTITLE0=過ちの夏
TTITLE1=Navigation
TTITLE2=Money
TTITLE3=僕のそばに
TTITLE4=魂の願い
TTITLE5=また明日は来る
TTITLE6=FRIENDS
TTITLE7=恋の花
TTITLE8=Jealousy
TTITLE9=もう一度あの日のように
EXTD=
EXTT0=
EXTT1=
EXTT2=
EXTT3=
EXTT4=
EXTT5=
EXTT6=
EXTT7=
EXTT8=
EXTT9=
PLAYORDER=
